<svg width="38" height="25" viewBox="0 0 38 25" fill="none" xmlns="http://www.w3.org/2000/svg">
<path d="M1.58331 23.3542H0.395813C0.395813 24.01 0.927474 24.5417 1.58331 24.5417V23.3542ZM4.74998 24.5417C5.40581 24.5417 5.93748 24.01 5.93748 23.3542C5.93748 22.6984 5.40581 22.1667 4.74998 22.1667V24.5417ZM6.6293 16.7871C7.26444 16.6236 7.6468 15.9762 7.48334 15.3411C7.31986 14.7058 6.67246 14.3235 6.03733 14.487L6.6293 16.7871ZM9.10426 11.5368C9.7226 11.7555 10.4011 11.4313 10.6196 10.8129C10.8382 10.1946 10.5141 9.51615 9.8957 9.29765L9.10426 11.5368ZM9.8957 2.5774C10.5141 2.35883 10.8382 1.68039 10.6196 1.06205C10.4011 0.443698 9.7226 0.119605 9.10426 0.338153L9.8957 2.5774ZM36.4166 23.3542V24.5417C37.0725 24.5417 37.6041 24.01 37.6041 23.3542H36.4166ZM33.25 22.1667C32.5942 22.1667 32.0625 22.6984 32.0625 23.3542C32.0625 24.01 32.5942 24.5417 33.25 24.5417V22.1667ZM31.9626 14.487C31.3275 14.3235 30.6801 14.7058 30.5167 15.3411C30.3531 15.9762 30.7355 16.6236 31.3707 16.7871L31.9626 14.487ZM28.8957 0.338153C28.2774 0.119605 27.5989 0.443698 27.3804 1.06205C27.1617 1.68039 27.4859 2.35883 28.1043 2.5774L28.8957 0.338153ZM28.1043 9.29765C27.4859 9.51615 27.1617 10.1946 27.3804 10.8129C27.5989 11.4313 28.2774 11.7555 28.8957 11.5368L28.1043 9.29765ZM28.5 23.3542V24.5417C29.1558 24.5417 29.6875 24.01 29.6875 23.3542H28.5ZM9.49998 23.3542H8.31248C8.31248 24.01 8.84415 24.5417 9.49998 24.5417V23.3542ZM0.395813 21.7708V23.3542H2.77081V21.7708H0.395813ZM1.58331 24.5417H4.74998V22.1667H1.58331V24.5417ZM2.77081 21.7708C2.77081 19.3748 4.40963 17.3584 6.6293 16.7871L6.03733 14.487C2.79379 15.3219 0.395813 18.2649 0.395813 21.7708H2.77081ZM5.14581 5.93748C5.14581 8.52457 6.79975 10.7223 9.10426 11.5368L9.8957 9.29765C8.51044 8.80796 7.52081 7.48678 7.52081 5.93748H5.14581ZM9.10426 0.338153C6.79975 1.15268 5.14581 3.35041 5.14581 5.93748H7.52081C7.52081 4.38821 8.51044 3.06701 9.8957 2.5774L9.10426 0.338153ZM35.2291 21.7708V23.3542H37.6041V21.7708H35.2291ZM36.4166 22.1667H33.25V24.5417H36.4166V22.1667ZM37.6041 21.7708C37.6041 18.2649 35.2062 15.3219 31.9626 14.487L31.3707 16.7871C33.5904 17.3584 35.2291 19.3748 35.2291 21.7708H37.6041ZM28.1043 2.5774C29.4896 3.06701 30.4791 4.38821 30.4791 5.93748H32.8541C32.8541 3.35041 31.2002 1.15268 28.8957 0.338153L28.1043 2.5774ZM30.4791 5.93748C30.4791 7.48678 29.4896 8.80796 28.1043 9.29765L28.8957 11.5368C31.2002 10.7223 32.8541 8.52457 32.8541 5.93748H30.4791ZM15.8333 16.625H22.1666V14.25H15.8333V16.625ZM27.3125 21.7708V23.3542H29.6875V21.7708H27.3125ZM10.6875 23.3542V21.7708H8.31248V23.3542H10.6875ZM22.1666 16.625C25.0086 16.625 27.3125 18.9289 27.3125 21.7708H29.6875C29.6875 17.6171 26.3204 14.25 22.1666 14.25V16.625ZM15.8333 14.25C11.6797 14.25 8.31248 17.6171 8.31248 21.7708H10.6875C10.6875 18.9289 12.9913 16.625 15.8333 16.625V14.25ZM28.5 22.1667H9.49998V24.5417H28.5V22.1667ZM22.5625 5.9375C22.5625 7.90501 20.9674 9.5 19 9.5V11.875C22.2792 11.875 24.9375 9.21674 24.9375 5.9375H22.5625ZM19 9.5C17.0325 9.5 15.4375 7.90501 15.4375 5.9375H13.0625C13.0625 9.21674 15.7208 11.875 19 11.875V9.5ZM15.4375 5.9375C15.4375 3.96999 17.0325 2.375 19 2.375V0C15.7208 0 13.0625 2.65831 13.0625 5.9375H15.4375ZM19 2.375C20.9674 2.375 22.5625 3.96999 22.5625 5.9375H24.9375C24.9375 2.65831 22.2792 0 19 0V2.375Z" fill="white"/>
</svg>
