<svg width="36" height="36" viewBox="0 0 36 36" fill="none" xmlns="http://www.w3.org/2000/svg">
	<path d="M16.3681 0.365622C17.4028 -0.119534 18.5972 -0.119534 19.632 0.365622L34.8125 7.46718C35.4028 7.7414 35.7778 8.33906 35.7778 9C35.7778 9.66093 35.4028 10.2586 34.8125 10.5328L19.632 17.6344C18.5972 18.1195 17.4028 18.1195 16.3681 17.6344L1.18751 10.5328C0.597229 10.2516 0.222229 9.6539 0.222229 9C0.222229 8.34609 0.597229 7.7414 1.18751 7.46718L16.3681 0.365622ZM31.1181 14.7375L34.8125 16.4672C35.4028 16.7414 35.7778 17.3391 35.7778 18C35.7778 18.6609 35.4028 19.2586 34.8125 19.5328L19.632 26.6344C18.5972 27.1195 17.4028 27.1195 16.3681 26.6344L1.18751 19.5328C0.597229 19.2516 0.222229 18.6539 0.222229 18C0.222229 17.3461 0.597229 16.7414 1.18751 16.4672L4.88195 14.7375L15.4375 19.6734C17.0625 20.4328 18.9375 20.4328 20.5625 19.6734L31.1181 14.7375ZM20.5625 28.6734L31.1181 23.7375L34.8125 25.4672C35.4028 25.7414 35.7778 26.3391 35.7778 27C35.7778 27.6609 35.4028 28.2586 34.8125 28.5328L19.632 35.6344C18.5972 36.1195 17.4028 36.1195 16.3681 35.6344L1.18751 28.5328C0.597229 28.2516 0.222229 27.6539 0.222229 27C0.222229 26.3461 0.597229 25.7414 1.18751 25.4672L4.88195 23.7375L15.4375 28.6734C17.0625 29.4328 18.9375 29.4328 20.5625 28.6734Z" fill="white"/>
	</svg>
	