<svg width="32" height="32" viewBox="0 0 32 32" fill="none" xmlns="http://www.w3.org/2000/svg">
	<path d="M24 26.6667V27.6667V26.6667ZM20 25.6667C19.4477 25.6667 19 26.1144 19 26.6667C19 27.2189 19.4477 27.6667 20 27.6667V25.6667ZM27.6667 24C27.6667 23.4477 27.2189 23 26.6667 23C26.1144 23 25.6667 23.4477 25.6667 24H27.6667ZM20 4.33334C19.4477 4.33334 19 4.78106 19 5.33334C19 5.88562 19.4477 6.33334 20 6.33334V4.33334ZM24 5.33334V6.33334V5.33334ZM26.6667 8.00001H27.6667H26.6667ZM25.6667 18.6667C25.6667 19.2189 26.1144 19.6667 26.6667 19.6667C27.2189 19.6667 27.6667 19.2189 27.6667 18.6667H25.6667ZM13.9596 20.6263C13.5691 21.0168 13.5691 21.6499 13.9596 22.0404C14.3501 22.4309 14.9832 22.4309 15.3737 22.0404L13.9596 20.6263ZM20 16L20.7071 16.7071C20.9931 16.4211 21.0787 15.9909 20.9239 15.6173C20.7691 15.2436 20.4044 15 20 15V16ZM15.3737 9.95957C14.9832 9.56905 14.3501 9.56905 13.9596 9.95957C13.5691 10.3501 13.5691 10.9833 13.9596 11.3738L15.3737 9.95957ZM15.2929 12.7071C15.6835 13.0976 16.3165 13.0976 16.7071 12.7071C17.0976 12.3166 17.0976 11.6834 16.7071 11.2929L15.2929 12.7071ZM4 15C3.44772 15 3 15.4477 3 16C3 16.5523 3.44772 17 4 17V15ZM24 25.6667H20V27.6667H24V25.6667ZM25.6667 24C25.6667 24.9205 24.9205 25.6667 24 25.6667V27.6667C26.0251 27.6667 27.6667 26.0251 27.6667 24H25.6667ZM20 6.33334H24V4.33334H20V6.33334ZM24 6.33334C24.9205 6.33334 25.6667 7.07953 25.6667 8.00001H27.6667C27.6667 5.97497 26.0251 4.33334 24 4.33334V6.33334ZM25.6667 8.00001V18.6667H27.6667V8.00001H25.6667ZM15.3737 22.0404L20.7071 16.7071L19.2929 15.2929L13.9596 20.6263L15.3737 22.0404ZM13.9596 11.3738L15.2929 12.7071L16.7071 11.2929L15.3737 9.95957L13.9596 11.3738ZM20 15H4V17H20V15Z" fill="white"/>
	</svg>
	