<svg width="33" height="33" viewBox="0 0 33 33" fill="none" xmlns="http://www.w3.org/2000/svg">
	<path d="M20.8333 2.91667C20.8333 2.22632 20.2737 1.66667 19.5833 1.66667C18.893 1.66667 18.3333 2.22632 18.3333 2.91667H20.8333ZM23.321 4.46485L24.2048 5.34873L23.321 4.46485ZM22.6505 5.13538L21.7667 4.2515L22.6505 5.13538ZM28.035 6.82187L28.919 5.93798L28.035 6.82187ZM25.678 4.46485L24.7942 5.34873L25.678 4.46485ZM27.3647 9.84933L28.2485 10.7332L27.3647 9.84933ZM28.035 9.1789L27.1512 8.29502L28.035 9.1789ZM29.5833 12.9167V11.6667V12.9167ZM28.6355 12.9167V14.1667V12.9167ZM27.1512 24.205C27.6393 24.693 28.4308 24.693 28.919 24.205C29.4072 23.7168 29.4072 22.9253 28.919 22.4372L27.1512 24.205ZM27.3647 22.6505L26.4807 23.5345L27.3647 22.6505ZM27.0295 20.7203L25.875 20.2412L27.0295 20.7203ZM27.0295 11.7796L28.184 11.3003L27.0295 11.7796ZM20.7203 5.47047L21.1997 4.31602L20.7203 5.47047ZM5.13538 22.6505L6.01927 23.5343L5.13538 22.6505ZM4.46482 23.321L5.3487 24.2048L4.46482 23.321ZM3.86462 12.9167V11.6667V12.9167ZM2.91667 12.9167V14.1667V12.9167ZM4.46485 9.1789L3.58097 10.0628L4.46485 9.1789ZM5.13538 9.84943L6.01927 8.96555L5.13538 9.84943ZM6.82187 4.46485L7.70575 5.34873L6.82187 4.46485ZM4.46485 6.82188L5.34873 7.70577L4.46485 6.82188ZM9.84943 5.13538L8.96555 6.01927L9.84943 5.13538ZM9.1789 4.46485L10.0628 3.58097L9.1789 4.46485ZM11.7796 5.47048L12.2589 6.62495L11.7796 5.47048ZM5.47048 11.7796L6.62495 12.2589L5.47048 11.7796ZM5.47047 20.7203L6.62493 20.241L5.47047 20.7203ZM3.58093 26.562C4.0691 27.0502 4.86055 27.0502 5.3487 26.562C5.83687 26.0738 5.83687 25.2823 5.3487 24.7942L3.58093 26.562ZM14.5833 2.5C15.2737 2.5 15.8333 1.94035 15.8333 1.25C15.8333 0.55965 15.2737 0 14.5833 0V2.5ZM22.6505 27.3647L23.5343 26.4807L22.6505 27.3647ZM23.321 28.035L22.437 28.919L23.321 28.035ZM11.7795 27.0295L11.3002 28.184L11.7795 27.0295ZM8.96537 26.4807C8.4772 26.9688 8.4772 27.7603 8.96537 28.2485C9.45352 28.7367 10.245 28.7367 10.7331 28.2485L8.96537 26.4807ZM20.7203 27.0295L21.1997 28.184L20.7203 27.0295ZM26.5618 28.919C27.05 28.4308 27.05 27.6393 26.5618 27.1512C26.0737 26.663 25.2822 26.663 24.794 27.1512L26.5618 28.919ZM20.8333 16.25C20.8333 15.5597 20.2737 15 19.5833 15C18.893 15 18.3333 15.5597 18.3333 16.25H20.8333ZM16.25 14.1667C16.9403 14.1667 17.5 13.607 17.5 12.9167C17.5 12.2263 16.9403 11.6667 16.25 11.6667V14.1667ZM20.8333 3.86465V2.91667H18.3333V3.86465H20.8333ZM22.4372 3.58097L21.7667 4.2515L23.5343 6.01927L24.2048 5.34873L22.4372 3.58097ZM28.919 5.93798L26.5618 3.58097L24.7942 5.34873L27.1512 7.70575L28.919 5.93798ZM28.2485 10.7332L28.919 10.0628L27.1512 8.29502L26.4807 8.96545L28.2485 10.7332ZM29.5833 11.6667H28.6355V14.1667H29.5833V11.6667ZM32.5 17.9167V14.5833H30V17.9167H32.5ZM28.6353 20.8333H29.5833V18.3333H28.6353V20.8333ZM28.919 22.4372L28.2485 21.7667L26.4807 23.5345L27.1512 24.205L28.919 22.4372ZM25.875 20.2412C25.4347 21.3017 25.571 22.6247 26.4807 23.5345L28.2485 21.7667C28.1495 21.6677 28.0773 21.4567 28.184 21.1997L25.875 20.2412ZM28.6353 18.3333C27.3407 18.3333 26.311 19.1908 25.875 20.2412L28.184 21.1997C28.2948 20.9328 28.504 20.8333 28.6353 20.8333V18.3333ZM30 17.9167C30 18.1468 29.8135 18.3333 29.5833 18.3333V20.8333C31.1942 20.8333 32.5 19.5275 32.5 17.9167H30ZM29.5833 14.1667C29.8135 14.1667 30 14.3532 30 14.5833H32.5C32.5 12.9725 31.1942 11.6667 29.5833 11.6667V14.1667ZM25.875 12.2589C26.311 13.3092 27.3407 14.1667 28.6355 14.1667V11.6667C28.504 11.6667 28.2948 11.5671 28.184 11.3003L25.875 12.2589ZM26.4807 8.96545C25.571 9.8752 25.4347 11.1983 25.875 12.2589L28.184 11.3003C28.0773 11.0433 28.1495 10.8322 28.2485 10.7332L26.4807 8.96545ZM27.1512 7.70575C27.3138 7.86847 27.3138 8.13228 27.1512 8.29502L28.919 10.0628C30.058 8.92375 30.058 7.07702 28.919 5.93798L27.1512 7.70575ZM24.2048 5.34873C24.3677 5.18602 24.6315 5.18602 24.7942 5.34873L26.5618 3.58097C25.4228 2.44193 23.5762 2.44193 22.4372 3.58097L24.2048 5.34873ZM20.241 6.62493C21.3017 7.06525 22.6247 6.92898 23.5343 6.01927L21.7667 4.2515C21.6677 4.3505 21.4567 4.42268 21.1997 4.31602L20.241 6.62493ZM18.3333 3.86465C18.3333 5.15932 19.1908 6.18892 20.241 6.62493L21.1997 4.31602C20.9328 4.20523 20.8333 3.99597 20.8333 3.86465H18.3333ZM4.2515 21.7665L3.58093 22.4372L5.3487 24.2048L6.01927 23.5343L4.2515 21.7665ZM2.91667 20.8333H3.86465V18.3333H2.91667V20.8333ZM0 14.5833V17.9167H2.5V14.5833H0ZM3.86462 11.6667H2.91667V14.1667H3.86462V11.6667ZM3.58097 10.0628L4.2515 10.7333L6.01927 8.96555L5.34873 8.29502L3.58097 10.0628ZM5.93798 3.58097L3.58097 5.93798L5.34873 7.70577L7.70575 5.34873L5.93798 3.58097ZM10.7333 4.2515L10.0628 3.58097L8.29502 5.34873L8.96555 6.01927L10.7333 4.2515ZM11.6667 2.91667V3.8646H14.1667V2.91667H11.6667ZM12.2589 6.62495C13.3092 6.18892 14.1667 5.1593 14.1667 3.8646H11.6667C11.6667 3.99595 11.5672 4.20525 11.3003 4.31603L12.2589 6.62495ZM8.96555 6.01927C9.87528 6.929 11.1983 7.06528 12.2589 6.62495L11.3003 4.31603C11.0433 4.42272 10.8323 4.35052 10.7333 4.2515L8.96555 6.01927ZM7.70575 5.34873C7.86847 5.18602 8.13228 5.18602 8.29502 5.34873L10.0628 3.58097C8.92375 2.44193 7.07702 2.44193 5.93798 3.58097L7.70575 5.34873ZM5.34873 8.29502C5.18602 8.1323 5.18602 7.86848 5.34873 7.70577L3.58097 5.93798C2.44193 7.07702 2.44193 8.92375 3.58097 10.0628L5.34873 8.29502ZM6.62495 12.2589C7.06528 11.1983 6.929 9.87528 6.01927 8.96555L4.2515 10.7333C4.35052 10.8323 4.42272 11.0433 4.31603 11.3003L6.62495 12.2589ZM3.86462 14.1667C5.1593 14.1667 6.18892 13.3092 6.62495 12.2589L4.31603 11.3003C4.20525 11.5672 3.99595 11.6667 3.86462 11.6667V14.1667ZM2.5 14.5833C2.5 14.3532 2.68655 14.1667 2.91667 14.1667V11.6667C1.30583 11.6667 0 12.9725 0 14.5833H2.5ZM2.91667 18.3333C2.68655 18.3333 2.5 18.1468 2.5 17.9167H0C0 19.5275 1.30583 20.8333 2.91667 20.8333V18.3333ZM6.62493 20.241C6.18892 19.1908 5.15932 18.3333 3.86465 18.3333V20.8333C3.99597 20.8333 4.20523 20.9328 4.31602 21.1997L6.62493 20.241ZM6.01927 23.5343C6.92898 22.6247 7.06525 21.3017 6.62493 20.241L4.31602 21.1997C4.42268 21.4567 4.3505 21.6677 4.2515 21.7667L6.01927 23.5343ZM5.3487 24.7942C5.18598 24.6315 5.18598 24.3677 5.3487 24.2048L3.58093 22.4372C2.4419 23.5762 2.4419 25.4228 3.58093 26.562L5.3487 24.7942ZM14.5833 0C12.9725 0 11.6667 1.30583 11.6667 2.91667H14.1667C14.1667 2.68655 14.3532 2.5 14.5833 2.5V0ZM21.7667 28.2485L22.437 28.919L24.2048 27.1512L23.5343 26.4807L21.7667 28.2485ZM20.8332 29.5833V28.6353H18.3332V29.5833H20.8332ZM14.5832 32.5H17.9165V30H14.5832V32.5ZM11.6666 28.6355V29.5833H14.1665V28.6355H11.6666ZM12.2588 25.875C11.1982 25.4347 9.87512 25.571 8.96537 26.4807L10.7331 28.2485C10.8322 28.1495 11.0432 28.0773 11.3002 28.184L12.2588 25.875ZM14.1665 28.6355C14.1665 27.3407 13.309 26.311 12.2588 25.875L11.3002 28.184C11.567 28.2947 11.6666 28.504 11.6666 28.6355H14.1665ZM14.5832 30C14.3532 30 14.1665 29.8135 14.1665 29.5833H11.6666C11.6666 31.1942 12.9723 32.5 14.5832 32.5V30ZM18.3332 29.5833C18.3332 29.8135 18.1467 30 17.9165 30V32.5C19.5273 32.5 20.8332 31.1942 20.8332 29.5833H18.3332ZM20.241 25.875C19.1908 26.311 18.3332 27.3407 18.3332 28.6353H20.8332C20.8332 28.504 20.9328 28.2948 21.1997 28.184L20.241 25.875ZM23.5343 26.4807C22.6247 25.571 21.3017 25.4347 20.241 25.875L21.1997 28.184C21.4565 28.0773 21.6677 28.1495 21.7667 28.2485L23.5343 26.4807ZM24.794 27.1512C24.6313 27.3138 24.3675 27.3138 24.2048 27.1512L22.437 28.919C23.5762 30.058 25.4228 30.058 26.5618 28.919L24.794 27.1512ZM18.3333 16.25C18.3333 17.4007 17.4007 18.3333 16.25 18.3333V20.8333C18.7813 20.8333 20.8333 18.7813 20.8333 16.25H18.3333ZM16.25 18.3333C15.0993 18.3333 14.1667 17.4007 14.1667 16.25H11.6667C11.6667 18.7813 13.7187 20.8333 16.25 20.8333V18.3333ZM14.1667 16.25C14.1667 15.0993 15.0993 14.1667 16.25 14.1667V11.6667C13.7187 11.6667 11.6667 13.7187 11.6667 16.25H14.1667Z" fill="white"/>
	</svg>
	